<svg xmlns="http://www.w3.org/2000/svg" width="80" height="80" fill="none" xmlns:v="https://vecta.io/nano"><g stroke="#3b4555" stroke-width="2.5" stroke-linejoin="round"><path d="M40 50c11.046 0 20-9.178 20-20.5S51.046 9 40 9s-20 9.178-20 20.5S28.954 50 40 50z"/><path d="M21.771 41.491L8.767 58.301l13.692-.103 6.757 11.909 8.067-19.687m20.713-8.929L71 58.301l-13.692-.103-6.757 11.909-8.067-19.687" stroke-linecap="round"/></g><path d="M40.751 20.467l2.439 4.914c.121.248.356.42.629.461l5.458.791c.221.029.421.146.556.324.254.331.216.803-.089 1.089l-3.954 3.84a.8.8 0 0 0-.238.733l.953 5.413a.83.83 0 0 1-.686.942.9.9 0 0 1-.543-.085l-4.868-2.551c-.244-.133-.538-.133-.781 0l-4.9 2.569a.85.85 0 0 1-1.127-.347.84.84 0 0 1-.086-.528l.953-5.413a.83.83 0 0 0-.238-.733l-3.985-3.841a.83.83 0 0 1-.002-1.176.95.95 0 0 1 .478-.236l5.458-.791a.86.86 0 0 0 .629-.461l2.439-4.914c.097-.2.271-.353.482-.423s.442-.055.642.046c.164.082.297.214.381.377z" stroke="#3dd598" stroke-width="2.5" stroke-linejoin="round"/></svg>