<svg xmlns="http://www.w3.org/2000/svg" width="80" height="80" fill="none" xmlns:v="https://vecta.io/nano"><path d="M31.626 45.775l4.491-5.551 6.254-6.102c.07-.069.152-.127.231-.187.815-.628 1.63-.614 2.169.036.549.663.408 1.456-.367 2.134l-2.827 2.509c-3.966 3.804-7.454 7.977-9.837 12.981-.992 2.084-1.73 4.248-2.043 6.545-.016.122-.049.242-.078.362-.204.835-.866 1.324-1.606 1.189-.767-.141-1.24-.782-1.141-1.641.298-2.575 1.006-5.058 2.204-7.338.752-1.431.787-2.479-.038-3.979-3.061-5.562-1.772-11.697 1.809-16.143 1.898-2.357 4.565-3.363 7.438-3.935l5.804-1.17a10.99 10.99 0 0 0 5.177-2.736c.904-.846 2.109-.596 2.405.548 1.549 5.971 2.293 12 .756 18.087-1.855 7.343-7.025 10.62-13.855 10.907-.952.04-1.584-.518-1.609-1.354-.026-.855.537-1.402 1.51-1.454 2.713-.149 5.29-.726 7.46-2.484 2.464-1.995 3.574-4.735 4.096-7.748.747-4.299.345-8.566-.495-12.811-.009-.044-.053-.08-.05-.077-1.294.543-2.537 1.229-3.868 1.586-2.26.607-4.56 1.097-6.87 1.477-5.741.944-8.084 5.324-8.566 10.163-.196 1.956.248 3.832 1.119 5.599.105.213.232.418.326.586z" fill="#3dd598"/><path d="M40.006 70.356l2.95 3.705c.252.334.455.785.475 1.194.029.581-.336 1.033-.909 1.22a1.37 1.37 0 0 1-1.594-.479l-2.514-3.115-2.463-3.061c-.693-.88-.617-1.592.256-2.301l6.005-4.835c.801-.641 1.624-.617 2.164.031.563.676.409 1.492-.426 2.174l-3.123 2.525 1.557-.005c12.037-1.062 21.911-9.852 24.37-21.684 2.569-12.359-4.029-25.176-15.608-30.322-.203-.09-.41-.171-.609-.27-.819-.408-1.125-1.147-.785-1.891.334-.73 1.11-1.013 1.941-.666 2.895 1.207 5.561 2.807 7.898 4.898 7.45 6.66 11.035 15.005 10.423 24.986-.809 13.213-10.658 24.457-23.657 27.183-1.73.364-3.521.449-5.284.654-.305.034-.617.033-1.068.058zm.062-60.227l-3.062-3.827c-.519-.67-.41-1.502.193-1.984.619-.495 1.392-.407 1.984.228a2.94 2.94 0 0 1 .143.171l4.88 6.061c.66.826.571 1.587-.248 2.253l-6.061 4.881c-.792.633-1.63.584-2.16-.084-.522-.657-.366-1.48.422-2.125l3.026-2.642-3.161.306C24.097 15.29 15.092 24.255 13.152 36.11c-1.956 11.957 4.547 24.018 15.607 28.95.226.1.455.193.671.312.729.403.999 1.196.656 1.889-.33.666-1.112 1.004-1.823.635-1.834-.956-3.743-1.828-5.424-3.013-7.393-5.215-11.627-12.383-12.65-21.366-1.799-15.802 9.501-30.53 25.169-32.889 1.527-.231 3.075-.33 4.711-.5z" fill="#3b4555"/></svg>